<svg class="main-svg" xmlns="http://www.w3.org/2000/svg" xmlns:xlink="http://www.w3.org/1999/xlink" width="800" height="500" style="" viewBox="0 0 800 500"><rect x="0" y="0" width="800" height="500" style="fill: rgb(255, 255, 255); fill-opacity: 1;"/><defs id="defs-3b29ef"><g class="clips"><clipPath id="clip3b29efxyplot" class="plotclip"><rect width="669" height="375"/></clipPath><clipPath class="axesclip" id="clip3b29efx"><rect x="127" y="0" width="669" height="500"/></clipPath><clipPath class="axesclip" id="clip3b29efy"><rect x="0" y="5" width="800" height="375"/></clipPath><clipPath class="axesclip" id="clip3b29efxy"><rect x="127" y="5" width="669" height="375"/></clipPath></g><g class="gradients"/><g class="patterns"/></defs><g class="bglayer"/><g class="layer-below"><g class="imagelayer"/><g class="shapelayer"/></g><g class="cartesianlayer"><g class="subplot xy"><g class="layer-subplot"><g class="shapelayer"/><g class="imagelayer"/></g><g class="minor-gridlayer"><g class="x"/><g class="y"/></g><g class="gridlayer"><g class="x"><path class="xgrid crisp" transform="translate(172.95,0)" d="M0,5v375" style="stroke: rgb(211, 211, 211); stroke-opacity: 1; stroke-width: 1px;"/><path class="xgrid crisp" transform="translate(317.23,0)" d="M0,5v375" style="stroke: rgb(211, 211, 211); stroke-opacity: 1; stroke-width: 1px;"/><path class="xgrid crisp" transform="translate(461.5,0)" d="M0,5v375" style="stroke: rgb(211, 211, 211); stroke-opacity: 1; stroke-width: 1px;"/><path class="xgrid crisp" transform="translate(605.78,0)" d="M0,5v375" style="stroke: rgb(211, 211, 211); stroke-opacity: 1; stroke-width: 1px;"/><path class="xgrid crisp" transform="translate(750.05,0)" d="M0,5v375" style="stroke: rgb(211, 211, 211); stroke-opacity: 1; stroke-width: 1px;"/></g><g class="y"><path class="ygrid crisp" transform="translate(0,340.69)" d="M127,0h669" style="stroke: rgb(211, 211, 211); stroke-opacity: 1; stroke-width: 1px;"/><path class="ygrid crisp" transform="translate(0,281)" d="M127,0h669" style="stroke: rgb(211, 211, 211); stroke-opacity: 1; stroke-width: 1px;"/><path class="ygrid crisp" transform="translate(0,221.3)" d="M127,0h669" style="stroke: rgb(211, 211, 211); stroke-opacity: 1; stroke-width: 1px;"/><path class="ygrid crisp" transform="translate(0,161.61)" d="M127,0h669" style="stroke: rgb(211, 211, 211); stroke-opacity: 1; stroke-width: 1px;"/><path class="ygrid crisp" transform="translate(0,101.91)" d="M127,0h669" style="stroke: rgb(211, 211, 211); stroke-opacity: 1; stroke-width: 1px;"/><path class="ygrid crisp" transform="translate(0,42.22)" d="M127,0h669" style="stroke: rgb(211, 211, 211); stroke-opacity: 1; stroke-width: 1px;"/></g></g><g class="zerolinelayer"/><g class="layer-between"><g class="shapelayer"/><g class="imagelayer"/></g><path class="xlines-below"/><path class="ylines-below"/><g class="overlines-below"/><g class="xaxislayer-below"/><g class="yaxislayer-below"/><g class="overaxes-below"/><g class="overplot"><g class="xy" transform="translate(127,5)" clip-path="url(#clip3b29efxyplot)"><g class="scatterlayer mlayer"><g class="trace scatter tracea5cc46" style="stroke-miterlimit: 2; opacity: 1;"><g class="fills"/><g class="errorbars"/><g class="lines"><path class="js-line" d="M45.95,343.75L190.23,247.34L334.5,173.92L478.78,110.05L623.05,40.2" style="vector-effect: none; fill: none; stroke: rgb(180, 146, 80); stroke-opacity: 0.75; stroke-dasharray: 18px, 18px; stroke-width: 6px; opacity: 1;"/></g><g class="points"><path class="point" transform="translate(45.95,343.75)" d="M10,0A10,10 0 1,1 0,-10A10,10 0 0,1 10,0Z" style="opacity: 1; stroke-width: 0px; fill: rgb(180, 146, 80); fill-opacity: 0.75;"/><path class="point" transform="translate(190.23,247.34)" d="M10,0A10,10 0 1,1 0,-10A10,10 0 0,1 10,0Z" style="opacity: 1; stroke-width: 0px; fill: rgb(180, 146, 80); fill-opacity: 0.75;"/><path class="point" transform="translate(334.5,173.92)" d="M10,0A10,10 0 1,1 0,-10A10,10 0 0,1 10,0Z" style="opacity: 1; stroke-width: 0px; fill: rgb(180, 146, 80); fill-opacity: 0.75;"/><path class="point" transform="translate(478.78,110.05)" d="M10,0A10,10 0 1,1 0,-10A10,10 0 0,1 10,0Z" style="opacity: 1; stroke-width: 0px; fill: rgb(180, 146, 80); fill-opacity: 0.75;"/><path class="point" transform="translate(623.05,40.2)" d="M10,0A10,10 0 1,1 0,-10A10,10 0 0,1 10,0Z" style="opacity: 1; stroke-width: 0px; fill: rgb(180, 146, 80); fill-opacity: 0.75;"/></g><g class="text"/></g><g class="trace scatter trace1c1636" style="stroke-miterlimit: 2; opacity: 1;"><g class="fills"/><g class="errorbars"/><g class="lines"><path class="js-line" d="M45.95,332.71L190.23,242.87L334.5,173.92L478.78,105.57L623.05,42.29" style="vector-effect: none; fill: none; stroke: rgb(249, 168, 0); stroke-opacity: 0.75; stroke-width: 6px; opacity: 1;"/></g><g class="points"><path class="point" transform="translate(45.95,332.71)" d="M10,10H-10V-10H10Z" style="opacity: 1; stroke-width: 0px; fill: rgb(249, 168, 0); fill-opacity: 0.75;"/><path class="point" transform="translate(190.23,242.87)" d="M10,10H-10V-10H10Z" style="opacity: 1; stroke-width: 0px; fill: rgb(249, 168, 0); fill-opacity: 0.75;"/><path class="point" transform="translate(334.5,173.92)" d="M10,10H-10V-10H10Z" style="opacity: 1; stroke-width: 0px; fill: rgb(249, 168, 0); fill-opacity: 0.75;"/><path class="point" transform="translate(478.78,105.57)" d="M10,10H-10V-10H10Z" style="opacity: 1; stroke-width: 0px; fill: rgb(249, 168, 0); fill-opacity: 0.75;"/><path class="point" transform="translate(623.05,42.29)" d="M10,10H-10V-10H10Z" style="opacity: 1; stroke-width: 0px; fill: rgb(249, 168, 0); fill-opacity: 0.75;"/></g><g class="text"/></g><g class="trace scatter trace5cb43d" style="stroke-miterlimit: 2; opacity: 1;"><g class="fills"/><g class="errorbars"/><g class="lines"><path class="js-line" d="M45.95,326.44L190.23,239.28L334.5,167.65L478.78,104.97L623.05,36.92" style="vector-effect: none; fill: none; stroke: rgb(249, 116, 0); stroke-opacity: 0.75; stroke-width: 6px; opacity: 1;"/></g><g class="points"><path class="point" transform="translate(45.95,326.44)" d="M13,0L0,13L-13,0L0,-13Z" style="opacity: 1; stroke-width: 0px; fill: rgb(249, 116, 0); fill-opacity: 0.75;"/><path class="point" transform="translate(190.23,239.28)" d="M13,0L0,13L-13,0L0,-13Z" style="opacity: 1; stroke-width: 0px; fill: rgb(249, 116, 0); fill-opacity: 0.75;"/><path class="point" transform="translate(334.5,167.65)" d="M13,0L0,13L-13,0L0,-13Z" style="opacity: 1; stroke-width: 0px; fill: rgb(249, 116, 0); fill-opacity: 0.75;"/><path class="point" transform="translate(478.78,104.97)" d="M13,0L0,13L-13,0L0,-13Z" style="opacity: 1; stroke-width: 0px; fill: rgb(249, 116, 0); fill-opacity: 0.75;"/><path class="point" transform="translate(623.05,36.92)" d="M13,0L0,13L-13,0L0,-13Z" style="opacity: 1; stroke-width: 0px; fill: rgb(249, 116, 0); fill-opacity: 0.75;"/></g><g class="text"/></g><g class="trace scatter trace49ae5d" style="stroke-miterlimit: 2; opacity: 1;"><g class="fills"/><g class="errorbars"/><g class="lines"><path class="js-line" d="M45.95,279.58L190.23,213.91L334.5,150.64L478.78,94.82L623.05,31.55" style="vector-effect: none; fill: none; stroke: rgb(211, 95, 219); stroke-opacity: 0.75; stroke-width: 6px; opacity: 1;"/></g><g class="points"><path class="point" transform="translate(45.95,279.58)" d="M12,4H4V12H-4V4H-12V-4H-4V-12H4V-4H12Z" style="opacity: 1; stroke-width: 0px; fill: rgb(211, 95, 219); fill-opacity: 0.75;"/><path class="point" transform="translate(190.23,213.91)" d="M12,4H4V12H-4V4H-12V-4H-4V-12H4V-4H12Z" style="opacity: 1; stroke-width: 0px; fill: rgb(211, 95, 219); fill-opacity: 0.75;"/><path class="point" transform="translate(334.5,150.64)" d="M12,4H4V12H-4V4H-12V-4H-4V-12H4V-4H12Z" style="opacity: 1; stroke-width: 0px; fill: rgb(211, 95, 219); fill-opacity: 0.75;"/><path class="point" transform="translate(478.78,94.82)" d="M12,4H4V12H-4V4H-12V-4H-4V-12H4V-4H12Z" style="opacity: 1; stroke-width: 0px; fill: rgb(211, 95, 219); fill-opacity: 0.75;"/><path class="point" transform="translate(623.05,31.55)" d="M12,4H4V12H-4V4H-12V-4H-4V-12H4V-4H12Z" style="opacity: 1; stroke-width: 0px; fill: rgb(211, 95, 219); fill-opacity: 0.75;"/></g><g class="text"/></g><g class="trace scatter tracee60e09" style="stroke-miterlimit: 2; opacity: 1;"><g class="fills"/><g class="errorbars"/><g class="lines"><path class="js-line" d="M45.95,275.7L190.23,210.33L334.5,150.34L478.78,93.93L623.05,31.25" style="vector-effect: none; fill: none; stroke: rgb(135, 33, 143); stroke-opacity: 0.75; stroke-width: 6px; opacity: 1;"/></g><g class="points"><path class="point" transform="translate(45.95,275.7)" d="M3.15,-4.33H13.31L5.08,1.65L8.23,11.33L0,5.35L-8.23,11.33L-5.08,1.65L-13.31,-4.33H-3.15L0,-14Z" style="opacity: 1; stroke-width: 0px; fill: rgb(135, 33, 143); fill-opacity: 0.75;"/><path class="point" transform="translate(190.23,210.33)" d="M3.15,-4.33H13.31L5.08,1.65L8.23,11.33L0,5.35L-8.23,11.33L-5.08,1.65L-13.31,-4.33H-3.15L0,-14Z" style="opacity: 1; stroke-width: 0px; fill: rgb(135, 33, 143); fill-opacity: 0.75;"/><path class="point" transform="translate(334.5,150.34)" d="M3.15,-4.33H13.31L5.08,1.65L8.23,11.33L0,5.35L-8.23,11.33L-5.08,1.65L-13.31,-4.33H-3.15L0,-14Z" style="opacity: 1; stroke-width: 0px; fill: rgb(135, 33, 143); fill-opacity: 0.75;"/><path class="point" transform="translate(478.78,93.93)" d="M3.15,-4.33H13.31L5.08,1.65L8.23,11.33L0,5.35L-8.23,11.33L-5.08,1.65L-13.31,-4.33H-3.15L0,-14Z" style="opacity: 1; stroke-width: 0px; fill: rgb(135, 33, 143); fill-opacity: 0.75;"/><path class="point" transform="translate(623.05,31.25)" d="M3.15,-4.33H13.31L5.08,1.65L8.23,11.33L0,5.35L-8.23,11.33L-5.08,1.65L-13.31,-4.33H-3.15L0,-14Z" style="opacity: 1; stroke-width: 0px; fill: rgb(135, 33, 143); fill-opacity: 0.75;"/></g><g class="text"/></g></g></g></g><path class="xlines-above crisp" d="M125,381H798M125,4H798" style="fill: none; stroke-width: 2px; stroke: rgb(0, 0, 0); stroke-opacity: 1;"/><path class="ylines-above crisp" d="M126,5V380M797,5V380" style="fill: none; stroke-width: 2px; stroke: rgb(0, 0, 0); stroke-opacity: 1;"/><g class="overlines-above"/><g class="xaxislayer-above"><g class="xtick"><text text-anchor="middle" x="0" y="425.2" transform="translate(172.95,0)" style="font-family: 'Times New Roman'; font-size: 36px; fill: rgb(0, 0, 0); fill-opacity: 1; white-space: pre; opacity: 1;">1</text></g><g class="xtick"><text text-anchor="middle" x="0" y="425.2" style="font-family: 'Times New Roman'; font-size: 36px; fill: rgb(0, 0, 0); fill-opacity: 1; white-space: pre; opacity: 1;" transform="translate(317.23,0)">2</text></g><g class="xtick"><text text-anchor="middle" x="0" y="425.2" style="font-family: 'Times New Roman'; font-size: 36px; fill: rgb(0, 0, 0); fill-opacity: 1; white-space: pre; opacity: 1;" transform="translate(461.5,0)">4</text></g><g class="xtick"><text text-anchor="middle" x="0" y="425.2" style="font-family: 'Times New Roman'; font-size: 36px; fill: rgb(0, 0, 0); fill-opacity: 1; white-space: pre; opacity: 1;" transform="translate(605.78,0)">8</text></g><g class="xtick"><text text-anchor="middle" x="0" y="425.2" style="font-family: 'Times New Roman'; font-size: 36px; fill: rgb(0, 0, 0); fill-opacity: 1; white-space: pre; opacity: 1;" transform="translate(750.05,0)">16</text></g></g><g class="yaxislayer-above"><g class="ytick"><text text-anchor="end" x="117.8" y="12.6" transform="translate(0,340.69)" style="font-family: 'Times New Roman'; font-size: 36px; fill: rgb(0, 0, 0); fill-opacity: 1; white-space: pre; opacity: 1;">72</text></g><g class="ytick"><text text-anchor="end" x="117.8" y="12.6" style="font-family: 'Times New Roman'; font-size: 36px; fill: rgb(0, 0, 0); fill-opacity: 1; white-space: pre; opacity: 1;" transform="translate(0,281)">74</text></g><g class="ytick"><text text-anchor="end" x="117.8" y="12.6" style="font-family: 'Times New Roman'; font-size: 36px; fill: rgb(0, 0, 0); fill-opacity: 1; white-space: pre; opacity: 1;" transform="translate(0,221.3)">76</text></g><g class="ytick"><text text-anchor="end" x="117.8" y="12.6" style="font-family: 'Times New Roman'; font-size: 36px; fill: rgb(0, 0, 0); fill-opacity: 1; white-space: pre; opacity: 1;" transform="translate(0,161.61)">78</text></g><g class="ytick"><text text-anchor="end" x="117.8" y="12.6" style="font-family: 'Times New Roman'; font-size: 36px; fill: rgb(0, 0, 0); fill-opacity: 1; white-space: pre; opacity: 1;" transform="translate(0,101.91)">80</text></g><g class="ytick"><text text-anchor="end" x="117.8" y="12.6" style="font-family: 'Times New Roman'; font-size: 36px; fill: rgb(0, 0, 0); fill-opacity: 1; white-space: pre; opacity: 1;" transform="translate(0,42.22)">82</text></g></g><g class="overaxes-above"/></g></g><g class="polarlayer"/><g class="smithlayer"/><g class="ternarylayer"/><g class="geolayer"/><g class="funnelarealayer"/><g class="pielayer"/><g class="iciclelayer"/><g class="treemaplayer"/><g class="sunburstlayer"/><g class="glimages"/><defs id="topdefs-3b29ef"><g class="clips"/><clipPath id="legend3b29ef"><rect width="281" height="195" x="0" y="0"/></clipPath></defs><g class="layer-above"><g class="imagelayer"/><g class="shapelayer"/></g><g class="infolayer"><g class="legend" pointer-events="all" transform="translate(508.30999999999995,181.25)"><rect class="bg" shape-rendering="crispEdges" style="stroke: rgb(68, 68, 68); stroke-opacity: 1; fill: rgb(255, 255, 255); fill-opacity: 1; stroke-width: 0px;" width="281" height="195" x="0" y="0"/><g class="scrollbox" transform="" clip-path="url(#legend3b29ef)"><g class="groups"><g class="traces" transform="translate(0,23.400000000000002)" style="opacity: 1;"><text class="legendtext" text-anchor="start" x="40" y="10.14" style="font-family: 'Times New Roman'; font-size: 26px; fill: rgb(0, 0, 0); fill-opacity: 1; white-space: pre;">"a photo of a {}"</text><g class="layers" style="opacity: 1;"><g class="legendfill"/><g class="legendlines"><path class="js-line" d="M5,0h30" style="fill: none; stroke: rgb(180, 146, 80); stroke-opacity: 0.75; stroke-dasharray: 18px, 18px; stroke-width: 6px;"/></g><g class="legendsymbols"><g class="legendpoints"><path class="scatterpts" transform="translate(20,0)" d="M8,0A8,8 0 1,1 0,-8A8,8 0 0,1 8,0Z" style="opacity: 1; stroke-width: 0px; fill: rgb(180, 146, 80); fill-opacity: 0.75;"/></g></g></g><rect class="legendtoggle" x="0" y="-18.400000000000002" width="275.421875" height="36.800000000000004" style="fill: rgb(0, 0, 0); fill-opacity: 0;"/></g><g class="traces" transform="translate(0,60.2)" style="opacity: 1;"><text class="legendtext" text-anchor="start" x="40" y="10.14" style="font-family: 'Times New Roman'; font-size: 26px; fill: rgb(0, 0, 0); fill-opacity: 1; white-space: pre;">CLIP prompts</text><g class="layers" style="opacity: 1;"><g class="legendfill"/><g class="legendlines"><path class="js-line" d="M5,0h30" style="fill: none; stroke: rgb(249, 168, 0); stroke-opacity: 0.75; stroke-width: 6px;"/></g><g class="legendsymbols"><g class="legendpoints"><path class="scatterpts" transform="translate(20,0)" d="M8,8H-8V-8H8Z" style="opacity: 1; stroke-width: 0px; fill: rgb(249, 168, 0); fill-opacity: 0.75;"/></g></g></g><rect class="legendtoggle" x="0" y="-18.400000000000002" width="275.421875" height="36.800000000000004" style="fill: rgb(0, 0, 0); fill-opacity: 0;"/></g><g class="traces" transform="translate(0,97.00000000000001)" style="opacity: 1;"><text class="legendtext" text-anchor="start" x="40" y="10.14" style="font-family: 'Times New Roman'; font-size: 26px; fill: rgb(0, 0, 0); fill-opacity: 1; white-space: pre;">CLIP ensemble</text><g class="layers" style="opacity: 1;"><g class="legendfill"/><g class="legendlines"><path class="js-line" d="M5,0h30" style="fill: none; stroke: rgb(249, 116, 0); stroke-opacity: 0.75; stroke-width: 6px;"/></g><g class="legendsymbols"><g class="legendpoints"><path class="scatterpts" transform="translate(20,0)" d="M10.4,0L0,10.4L-10.4,0L0,-10.4Z" style="opacity: 1; stroke-width: 0px; fill: rgb(249, 116, 0); fill-opacity: 0.75;"/></g></g></g><rect class="legendtoggle" x="0" y="-18.400000000000002" width="275.421875" height="36.800000000000004" style="fill: rgb(0, 0, 0); fill-opacity: 0;"/></g><g class="traces" transform="translate(0,133.8)" style="opacity: 1;"><text class="legendtext" text-anchor="start" x="40" y="10.14" style="font-family: 'Times New Roman'; font-size: 26px; fill: rgb(0, 0, 0); fill-opacity: 1; white-space: pre;">CuPL</text><g class="layers" style="opacity: 1;"><g class="legendfill"/><g class="legendlines"><path class="js-line" d="M5,0h30" style="fill: none; stroke: rgb(211, 95, 219); stroke-opacity: 0.75; stroke-width: 6px;"/></g><g class="legendsymbols"><g class="legendpoints"><path class="scatterpts" transform="translate(20,0)" d="M9.6,3.2H3.2V9.6H-3.2V3.2H-9.6V-3.2H-3.2V-9.6H3.2V-3.2H9.6Z" style="opacity: 1; stroke-width: 0px; fill: rgb(211, 95, 219); fill-opacity: 0.75;"/></g></g></g><rect class="legendtoggle" x="0" y="-18.400000000000002" width="275.421875" height="36.800000000000004" style="fill: rgb(0, 0, 0); fill-opacity: 0;"/></g><g class="traces" transform="translate(0,170.60000000000002)" style="opacity: 1;"><text class="legendtext" text-anchor="start" x="40" y="10.14" style="font-family: 'Times New Roman'; font-size: 26px; fill: rgb(0, 0, 0); fill-opacity: 1; white-space: pre;">CLIP ensemble+CuPL</text><g class="layers" style="opacity: 1;"><g class="legendfill"/><g class="legendlines"><path class="js-line" d="M5,0h30" style="fill: none; stroke: rgb(135, 33, 143); stroke-opacity: 0.75; stroke-width: 6px;"/></g><g class="legendsymbols"><g class="legendpoints"><path class="scatterpts" transform="translate(20,0)" d="M2.52,-3.46H10.65L4.07,1.32L6.59,9.06L0,4.28L-6.59,9.06L-4.07,1.32L-10.65,-3.46H-2.52L0,-11.2Z" style="opacity: 1; stroke-width: 0px; fill: rgb(135, 33, 143); fill-opacity: 0.75;"/></g></g></g><rect class="legendtoggle" x="0" y="-18.400000000000002" width="275.421875" height="36.800000000000004" style="fill: rgb(0, 0, 0); fill-opacity: 0;"/></g></g></g><rect class="scrollbar" rx="20" ry="3" width="0" height="0" style="fill: rgb(128, 139, 164); fill-opacity: 1;" x="0" y="0"/></g><g class="g-gtitle"/><g class="g-xtitle"><text class="xtitle" x="461.5" y="472.3001953125" text-anchor="middle" style="opacity: 1; font-family: 'Times New Roman'; font-size: 43px; fill: rgb(0, 0, 0); fill-opacity: 1; white-space: pre;">Number of Shots</text></g><g class="g-ytitle" transform="translate(20.25,0)"><text class="ytitle" transform="rotate(-90,17.749804687500003,192.5)" x="17.749804687500003" y="192.5" text-anchor="middle" style="opacity: 1; font-family: 'Times New Roman'; font-size: 43px; fill: rgb(0, 0, 0); fill-opacity: 1; white-space: pre;">Accuracy (%)</text></g></g></svg>